<svg width="96" height="96" viewBox="0 0 306 130" fill="none" xmlns="http://www.w3.org/2000/svg">
<path d="M8.78906 75.3672C8.13802 75.3672 7.12891 75.2695 5.76172 75.0742C4.72005 73.9674 3.77604 72.4701 2.92969 70.582C2.14844 68.6289 1.52995 66.5781 1.07422 64.4297C0.683594 62.2161 0.488281 60.0352 0.488281 57.8867C0.553385 55.6732 0.94401 53.7201 1.66016 52.0273C1.66016 51.9622 1.95312 51.181 2.53906 49.6836C3.1901 48.1862 4.00391 46.2982 4.98047 44.0195C5.95703 41.6758 7.0638 39.1042 8.30078 36.3047C9.53776 33.4401 10.7747 30.6406 12.0117 27.9062C13.2487 25.1719 14.4206 22.6979 15.5273 20.4844C16.6992 18.2057 17.7083 16.4479 18.5547 15.2109C19.1406 14.2995 19.6615 13.4206 20.1172 12.5742C20.638 11.7279 21.1263 10.9466 21.582 10.2305C22.2982 9.05859 22.9492 7.98438 23.5352 7.00781C24.1862 5.96615 24.8698 5.05469 25.5859 4.27344C26.3672 3.42708 27.2135 2.71094 28.125 2.125C29.0365 1.47396 30.1432 0.920573 31.4453 0.464844C32.2266 0.790365 32.9102 1.14844 33.4961 1.53906C34.082 1.86458 34.6029 2.28776 35.0586 2.80859L35.3516 4.17578C35.4818 4.63151 35.6771 4.95703 35.9375 5.15234C36.263 5.28255 36.5234 5.34766 36.7188 5.34766C37.5651 5.54297 38.2812 5.77083 38.8672 6.03125C39.5182 6.22656 40.2018 6.35677 40.918 6.42188C41.1784 6.8125 41.4062 7.20312 41.6016 7.59375C41.862 7.98438 42.1224 8.34245 42.3828 8.66797C43.6849 10.556 44.7591 12.3789 45.6055 14.1367C46.4518 15.8945 46.4518 17.8151 45.6055 19.8984L45.7031 20.9727C46.0286 21.4284 46.1914 21.8516 46.1914 22.2422C46.1914 22.6328 46.1263 23.1862 45.9961 23.9023C45.931 24.4232 45.8659 25.0091 45.8008 25.6602C45.8008 26.2461 45.8984 26.8971 46.0938 27.6133L46.7773 28.3945C47.819 28.9154 48.8281 29.1758 49.8047 29.1758C51.1068 29.1758 52.2786 28.8828 53.3203 28.2969C54.362 27.7109 55.3385 27.125 56.25 26.5391C56.9661 26.0182 57.6172 25.5951 58.2031 25.2695C58.8542 24.944 59.4727 24.7161 60.0586 24.5859C61.4258 23.2839 62.6628 22.1445 63.7695 21.168C64.9414 20.1263 66.1458 19.0846 67.3828 18.043C69.7266 16.1549 72.0052 14.1367 74.2188 11.9883C76.4323 9.77474 78.1901 7.04036 79.4922 3.78516C80.2083 3.32943 81.0221 3.10156 81.9336 3.10156C82.8451 3.10156 83.7565 3.29688 84.668 3.6875C85.5794 4.01302 86.4909 4.40365 87.4023 4.85938C87.5977 4.98958 87.7604 5.08724 87.8906 5.15234C88.0859 5.21745 88.2812 5.3151 88.4766 5.44531C88.4766 6.16146 88.7695 6.8125 89.3555 7.39844C89.681 7.65885 89.9089 7.82161 90.0391 7.88672C90.1693 7.95182 90.2995 8.01693 90.4297 8.08203C90.9505 8.40755 91.3737 8.70052 91.6992 8.96094C92.0898 9.22135 92.3828 9.57943 92.5781 10.0352C93.1641 11.793 94.1406 13.1602 95.5078 14.1367C95.3776 14.8529 95.4102 15.569 95.6055 16.2852C95.8008 16.9362 96.0286 17.5872 96.2891 18.2383C96.4193 18.4987 96.5169 18.7591 96.582 19.0195C96.6471 19.2148 96.7448 19.4753 96.875 19.8008L94.7266 19.6055L95.0195 21.7539C95.2148 22.8607 95.1172 24.0977 94.7266 25.4648C94.401 26.832 94.0104 27.9062 93.5547 28.6875C93.6849 30.6406 93.75 32.2031 93.75 33.375C93.75 34.4818 93.6849 35.5234 93.5547 36.5C93.4245 37.4766 93.1966 38.4206 92.8711 39.332C92.6107 40.1784 92.2526 41.0898 91.7969 42.0664C92.0573 47.0143 91.4714 51.5391 90.0391 55.6406C88.6719 59.7422 87.1745 63.5833 85.5469 67.1641C85.3516 67.6198 85.1562 68.043 84.9609 68.4336C84.7656 68.8242 84.6029 69.2148 84.4727 69.6055C83.7565 69.8008 83.1055 70.0286 82.5195 70.2891C81.9336 70.5495 81.3802 70.8424 80.8594 71.168C80.1432 71.6237 79.4271 72.0143 78.7109 72.3398C77.9948 72.6003 77.2461 72.7305 76.4648 72.7305C73.3398 70.4518 71.7122 66.513 71.582 60.9141C71.5169 55.3151 72.7214 48.1862 75.1953 39.5273C75.651 39.2018 75.8464 38.7135 75.7812 38.0625V36.9883L74.8047 36.8906C74.4792 36.8906 74.1862 36.9232 73.9258 36.9883C73.6654 37.0534 73.4701 37.3464 73.3398 37.8672C71.2565 39.3646 68.9779 40.9271 66.5039 42.5547C64.0951 44.1172 61.5885 45.582 58.9844 46.9492C56.3802 48.2513 53.7109 49.3581 50.9766 50.2695C48.3073 51.1159 45.7031 51.5391 43.1641 51.5391C36.6536 51.5391 31.7383 48.2188 28.418 41.5781L27.5391 39.8203L26.5625 41.3828C26.3672 41.7083 26.0091 42.3594 25.4883 43.3359C25.0326 44.2474 24.5443 45.3216 24.0234 46.5586C23.5677 47.7956 23.1445 49.0651 22.7539 50.3672C22.4284 51.6693 22.3307 52.8086 22.4609 53.7852C21.6797 54.5013 20.8984 55.3151 20.1172 56.2266C19.401 57.138 18.8802 58.1797 18.5547 59.3516C18.4245 59.6771 18.3919 60.0026 18.457 60.3281C18.5221 60.5885 18.6198 60.8815 18.75 61.207C18.6849 61.6628 18.5547 61.9883 18.3594 62.1836C18.1641 62.3789 17.9362 62.5742 17.6758 62.7695C17.3503 63.0951 17.0247 63.4531 16.6992 63.8438C16.3737 64.1693 16.0807 64.5599 15.8203 65.0156C15.6901 65.4062 15.5924 65.8294 15.5273 66.2852C15.4622 66.6758 15.3971 67.0339 15.332 67.3594C15.332 68.0755 15.2344 68.5638 15.0391 68.8242C14.388 70.1914 13.8021 71.3307 13.2812 72.2422C12.8255 73.0885 12.3698 73.7396 11.9141 74.1953C11.4583 74.651 10.9701 74.944 10.4492 75.0742C9.99349 75.2695 9.4401 75.3672 8.78906 75.3672Z" fill="#D7443F"/>
<path d="M105.105 26.832C102.371 25.7253 100.092 24.1628 98.2695 22.1445C96.5117 20.1263 95.0794 17.75 93.9727 15.0156C94.6237 13.2578 95.6654 11.793 97.0977 10.6211C98.5299 9.38411 100.125 8.34245 101.883 7.49609C103.706 6.64974 105.626 5.96615 107.645 5.44531C109.663 4.92448 111.616 4.46875 113.504 4.07812C113.895 4.20833 114.09 4.20833 114.09 4.07812C114.09 3.94792 114.253 4.01302 114.578 4.27344C116.922 3.55729 119.624 2.8737 122.684 2.22266C125.743 1.50651 128.999 1.24609 132.449 1.44141C132.905 1.18099 133.458 1.05078 134.109 1.05078C134.76 0.985677 135.444 0.953125 136.16 0.953125C136.876 0.953125 137.56 0.953125 138.211 0.953125C138.862 0.888021 139.415 0.757812 139.871 0.5625C140.262 1.01823 140.848 1.3112 141.629 1.44141C142.41 1.50651 143.224 1.83203 144.07 2.41797C144.331 2.48307 144.331 2.38542 144.07 2.125C143.81 1.79948 143.842 1.57161 144.168 1.44141C145.014 1.44141 145.763 1.63672 146.414 2.02734C147.065 2.41797 147.651 2.8737 148.172 3.39453C148.758 3.85026 149.279 4.27344 149.734 4.66406C150.255 5.05469 150.809 5.25 151.395 5.25C151.98 5.96615 152.664 6.64974 153.445 7.30078C154.292 7.88672 155.073 8.50521 155.789 9.15625C156.57 9.80729 157.189 10.5234 157.645 11.3047C158.165 12.0859 158.426 12.9648 158.426 13.9414C158.361 14.332 158.491 14.5599 158.816 14.625C159.142 14.6901 159.37 14.8854 159.5 15.2109C159.565 17.6198 159.174 19.7031 158.328 21.4609C157.547 23.2188 156.538 24.8464 155.301 26.3438C154.064 27.776 152.729 29.1432 151.297 30.4453C149.93 31.7474 148.66 33.1471 147.488 34.6445C148.27 35.6211 149.148 36.5326 150.125 37.3789C151.167 38.1602 152.208 38.9414 153.25 39.7227C154.292 40.5039 155.268 41.3503 156.18 42.2617C157.156 43.1081 157.97 44.0846 158.621 45.1914C158.816 45.582 159.24 45.8424 159.891 45.9727C160.086 46.7539 160.346 47.5677 160.672 48.4141C161.062 49.1953 161.421 49.9766 161.746 50.7578C162.072 51.474 162.267 52.125 162.332 52.7109C162.397 53.2969 162.234 53.7852 161.844 54.1758C162.299 54.4362 162.56 54.8594 162.625 55.4453C162.69 55.9661 162.69 56.3893 162.625 56.7148C161.193 58.4727 160.216 59.7096 159.695 60.4258C159.174 61.1419 158.784 61.6628 158.523 61.9883C158.263 62.3138 158.003 62.6068 157.742 62.8672C157.482 63.1276 156.896 63.6484 155.984 64.4297C152.534 66.513 148.921 68.401 145.145 70.0938C141.434 71.7214 137.56 72.8281 133.523 73.4141C133.198 73.8698 132.71 74.2279 132.059 74.4883C131.473 74.8138 130.789 75.0742 130.008 75.2695C129.227 75.4648 128.38 75.6276 127.469 75.7578C126.622 75.888 125.841 76.0182 125.125 76.1484C124.799 76.0182 124.604 75.7904 124.539 75.4648C124.539 75.2044 124.376 75.0091 124.051 74.8789C123.986 75.6602 123.628 76.0508 122.977 76.0508C122.391 76.1159 121.642 75.9857 120.73 75.6602C119.819 75.3346 118.875 74.8789 117.898 74.293C116.922 73.707 116.076 73.1536 115.359 72.6328C115.034 73.2188 114.611 73.8372 114.09 74.4883C113.634 75.1393 113.146 75.5951 112.625 75.8555C111.714 75.7253 111.03 75.6276 110.574 75.5625C110.184 75.4974 109.793 75.6602 109.402 76.0508C108.882 75.7904 108.491 75.4974 108.23 75.1719C107.97 74.9115 107.71 74.6185 107.449 74.293C107.189 74.0326 106.896 73.8047 106.57 73.6094C106.245 73.349 105.757 73.1211 105.105 72.9258C105.236 72.6003 105.138 72.112 104.812 71.4609C104.487 70.7448 104.031 70.3216 103.445 70.1914C103.771 69.6706 103.641 69.0195 103.055 68.2383C102.469 67.3919 102.013 66.4479 101.688 65.4062C101.753 64.9505 101.785 64.4948 101.785 64.0391C101.85 63.5182 101.915 63.0625 101.98 62.6719C102.111 62.2161 102.273 61.8255 102.469 61.5C102.664 61.1745 102.99 60.9466 103.445 60.8164C103.38 59.9701 103.12 59.1562 102.664 58.375C103.25 57.9193 103.641 57.3659 103.836 56.7148C104.031 55.9987 104.194 55.2826 104.324 54.5664C104.52 53.8503 104.747 53.1667 105.008 52.5156C105.268 51.7995 105.691 51.2135 106.277 50.7578C106.147 50.5625 106.017 50.3997 105.887 50.2695C105.757 50.1393 105.691 49.9115 105.691 49.5859C106.668 47.9583 107.352 46.5911 107.742 45.4844C108.133 44.3125 108.426 43.2057 108.621 42.1641C108.882 41.0573 109.142 39.8854 109.402 38.6484C109.663 37.4115 110.184 35.849 110.965 33.9609C110.9 32.7891 111.03 31.7474 111.355 30.8359C111.681 29.9245 112.007 29.0456 112.332 28.1992C112.723 27.2878 113.016 26.3438 113.211 25.3672C113.406 24.3906 113.374 23.2513 113.113 21.9492C112.007 22.0794 111.193 22.4701 110.672 23.1211C110.216 23.7721 109.923 24.651 109.793 25.7578C109.207 26.2786 108.458 26.5391 107.547 26.5391C106.635 26.474 105.822 26.5716 105.105 26.832ZM148.074 45.6797C145.6 44.3125 143.322 43.4987 141.238 43.2383C139.22 42.9779 137.267 43.0104 135.379 43.3359C133.556 43.5964 131.798 43.987 130.105 44.5078C128.413 45.0286 126.72 45.4193 125.027 45.6797C124.181 47.8932 123.302 50.3346 122.391 53.0039C121.479 55.6732 120.6 58.2773 119.754 60.8164C122.098 60.4909 124.246 60.0026 126.199 59.3516C128.152 58.7005 130.04 57.9844 131.863 57.2031C133.686 56.3568 135.477 55.543 137.234 54.7617C138.992 53.9154 140.815 53.1341 142.703 52.418C142.898 51.6367 143.322 51.0182 143.973 50.5625C144.624 50.1068 145.275 49.6836 145.926 49.293C146.577 48.8372 147.13 48.349 147.586 47.8281C148.042 47.3073 148.204 46.5911 148.074 45.6797ZM141.238 15.1133C137.202 14.9831 133.23 15.3411 129.324 16.1875C125.418 17.0339 122.13 18.2708 119.461 19.8984C120.763 21.0052 122.098 21.9818 123.465 22.8281C124.897 23.6745 125.971 24.8138 126.688 26.2461C129.812 25.0091 132.547 23.4466 134.891 21.5586C137.234 19.6055 139.35 17.457 141.238 15.1133Z" fill="#D7443F"/>
<path d="M168.148 71.9219C168.083 71.401 167.953 70.9453 167.758 70.5547C167.628 70.099 167.465 69.6107 167.27 69.0898C166.944 68.3086 166.651 67.4622 166.391 66.5508C166.13 65.6393 166 64.5651 166 63.3281C166.13 62.6771 166.293 62.2214 166.488 61.9609C166.684 61.6354 166.879 61.375 167.074 61.1797L167.465 59.4219H168.93C169.451 59.487 169.971 59.5195 170.492 59.5195C171.078 59.5195 171.632 59.5195 172.152 59.5195C174.626 59.5195 177.165 59.4219 179.77 59.2266C182.374 59.0312 185.043 58.8034 187.777 58.543C190.772 58.1523 193.995 57.8594 197.445 57.6641C197.771 56.9479 197.966 56.4922 198.031 56.2969C198.161 56.1016 198.292 55.8737 198.422 55.6133L199.496 55.0273C200.993 54.9622 202.035 55.1576 202.621 55.6133C203.207 56.0039 203.663 56.3945 203.988 56.7852C205.681 56.6549 207.406 56.4922 209.164 56.2969C210.922 56.0365 212.745 55.776 214.633 55.5156C217.237 55.1901 219.874 54.8646 222.543 54.5391C225.212 54.2135 227.816 54.0508 230.355 54.0508C231.462 54.0508 232.504 54.0833 233.48 54.1484C234.457 54.2135 235.401 54.3112 236.312 54.4414L237.484 55.3203C237.745 55.776 238.07 56.1992 238.461 56.5898C238.852 56.9805 239.307 57.3711 239.828 57.7617C240.805 58.543 241.749 59.5195 242.66 60.6914C243.637 61.8633 243.995 63.5885 243.734 65.8672L243.246 66.8438C242.986 67.1042 242.66 67.3646 242.27 67.625L241.293 68.8945H240.219C239.568 68.8945 239.079 68.9596 238.754 69.0898C238.428 69.1549 238.038 69.2852 237.582 69.4805C237.322 69.6107 237.029 69.7409 236.703 69.8711C236.378 69.9362 236.02 70.0339 235.629 70.1641C234.913 70.099 234.359 70.0664 233.969 70.0664C233.578 70.0664 233.122 70.0664 232.602 70.0664C230.648 70.0664 228.533 70.1966 226.254 70.457C223.975 70.7174 221.762 71.0104 219.613 71.3359C218.051 71.5312 216.553 71.7266 215.121 71.9219C213.689 72.0521 212.387 72.1823 211.215 72.3125C210.564 74.0052 209.978 75.5026 209.457 76.8047C208.936 78.1068 208.383 79.4089 207.797 80.7109C207.211 82.013 206.658 83.3477 206.137 84.7148C205.616 86.0169 205.128 87.4818 204.672 89.1094C203.891 90.2812 203.24 91.4206 202.719 92.5273C202.198 93.569 201.775 94.7734 201.449 96.1406C200.473 97.2474 199.757 98.4518 199.301 99.7539C198.91 101.056 198.552 102.163 198.227 103.074L197.836 104.539C197.38 104.995 197.087 105.353 196.957 105.613C196.892 105.874 196.729 106.167 196.469 106.492C196.273 107.339 196.013 108.152 195.688 108.934C195.557 109.259 195.427 109.617 195.297 110.008C195.167 110.333 195.134 110.594 195.199 110.789C195.069 111.505 194.874 112.059 194.613 112.449C194.613 112.84 194.581 113.23 194.516 113.621C194.451 114.012 194.385 114.402 194.32 114.793C194.19 115.249 194.092 115.672 194.027 116.062C193.962 116.388 193.995 116.714 194.125 117.039C194.32 117.299 194.516 117.56 194.711 117.82C194.906 118.081 195.069 118.406 195.199 118.797C195.329 118.927 195.492 119.025 195.688 119.09C195.883 119.155 196.046 119.253 196.176 119.383C196.697 119.839 197.185 120.099 197.641 120.164L198.617 121.336C199.008 123.68 198.65 125.503 197.543 126.805C196.371 128.302 194.418 129.051 191.684 129.051L190.316 128.953C189.861 128.497 189.6 128.204 189.535 128.074C188.949 127.814 188.461 127.586 188.07 127.391C187.68 127.26 187.322 126.967 186.996 126.512C186.866 126.382 186.703 126.316 186.508 126.316C186.312 126.251 186.15 126.154 186.02 126.023C185.368 125.828 184.848 125.6 184.457 125.34L183.383 124.754C183.448 124.103 183.48 123.647 183.48 123.387C182.96 122.671 182.536 121.889 182.211 121.043C181.951 120.197 181.723 119.318 181.527 118.406C181.332 117.69 181.137 117.039 180.941 116.453C180.811 115.867 180.583 115.346 180.258 114.891C180.128 110.333 180.551 106.525 181.527 103.465C182.504 100.34 183.578 97.3125 184.75 94.3828C185.401 92.8203 186.02 91.2253 186.605 89.5977C187.191 87.9701 187.712 86.3099 188.168 84.6172L189.242 83.543C189.698 83.1523 189.991 82.9245 190.121 82.8594C190.121 82.013 190.284 81.1992 190.609 80.418C190.935 79.5716 191.293 78.7253 191.684 77.8789C191.944 77.3581 192.172 76.8372 192.367 76.3164C192.628 75.7956 192.79 75.3398 192.855 74.9492C192.4 74.9492 191.977 74.9818 191.586 75.0469C191.26 75.0469 190.902 75.0794 190.512 75.1445C189.665 75.3398 188.852 75.4375 188.07 75.4375C187.484 75.4375 187.061 75.4049 186.801 75.3398C186.28 75.6003 185.792 75.763 185.336 75.8281C184.88 75.8281 184.424 75.8281 183.969 75.8281H182.797H181.625C180.844 75.8281 180.225 75.9258 179.77 76.1211C178.858 76.1211 178.272 76.1211 178.012 76.1211C177.751 76.1211 177.458 76.1211 177.133 76.1211H175.961H174.789C174.268 76.1211 173.682 76.0885 173.031 76.0234C172.38 75.8932 171.697 75.6328 170.98 75.2422L170.297 74.4609C169.906 73.7448 169.548 73.3542 169.223 73.2891L168.148 72.9961V71.9219Z" fill="#A6A5A1"/>
<path d="M242.66 128.172C241.749 127.586 241.033 126.837 240.512 125.926C239.926 125.014 239.47 124.038 239.145 122.996C238.754 121.954 238.461 120.88 238.266 119.773C238.005 118.602 237.745 117.495 237.484 116.453C237.484 115.542 237.68 114.891 238.07 114.5C238.461 114.044 238.884 113.621 239.34 113.23C240.902 113.165 242.302 113.035 243.539 112.84C244.776 112.645 245.98 112.449 247.152 112.254C248.324 112.059 249.496 111.896 250.668 111.766C251.84 111.57 253.109 111.473 254.477 111.473C255.453 109.454 256.365 107.534 257.211 105.711C258.057 103.823 258.871 102.033 259.652 100.34C260.043 98.7122 260.531 97.2148 261.117 95.8477C261.768 94.4154 262.387 93.0807 262.973 91.8438C263.559 90.5417 264.079 89.2721 264.535 88.0352C264.991 86.7331 265.284 85.3659 265.414 83.9336C266.195 81.6549 266.879 79.5716 267.465 77.6836C268.116 75.7305 268.604 73.4193 268.93 70.75C266.456 71.1406 264.47 71.5312 262.973 71.9219C261.475 72.2474 260.401 72.5729 259.75 72.8984C258.448 72.8333 257.406 72.5729 256.625 72.1172C255.909 71.6615 255.323 71.1081 254.867 70.457C254.411 69.806 254.021 69.0573 253.695 68.2109C253.37 67.3646 252.979 66.4857 252.523 65.5742C252.784 64.9883 252.849 64.1419 252.719 63.0352C252.589 61.8633 252.198 61.0169 251.547 60.4961C252.068 60.3659 252.458 59.9427 252.719 59.2266C252.979 58.4453 253.012 57.8594 252.816 57.4688C253.923 57.1432 255.095 56.9479 256.332 56.8828C257.569 56.7526 258.773 56.6549 259.945 56.5898C261.182 56.4596 262.354 56.3294 263.461 56.1992C264.568 56.0039 265.512 55.6458 266.293 55.125C269.678 54.9948 273.194 54.8646 276.84 54.7344C280.551 54.6042 283.969 54.4414 287.094 54.2461C288.266 54.6367 289.6 54.832 291.098 54.832C292.66 54.832 294.19 54.9297 295.688 55.125C297.25 55.3203 298.617 55.7435 299.789 56.3945C301.026 57.0456 301.872 58.1849 302.328 59.8125C303.305 59.9427 304.021 60.2031 304.477 60.5938C304.997 60.9844 305.323 61.4727 305.453 62.0586C305.583 62.5794 305.616 63.1979 305.551 63.9141C305.551 64.5651 305.551 65.2161 305.551 65.8672C304.509 66.6484 303.174 67.2995 301.547 67.8203C299.984 68.276 298.259 68.6667 296.371 68.9922C294.483 69.2526 292.497 69.4479 290.414 69.5781C288.396 69.6432 286.41 69.7083 284.457 69.7734C284.132 71.9219 283.546 74.4609 282.699 77.3906C281.918 80.2552 281.104 83.0872 280.258 85.8867C279.411 88.6211 278.663 91.0951 278.012 93.3086C277.426 95.457 277.165 96.8568 277.23 97.5078C276.579 99.0052 276.026 100.275 275.57 101.316C275.18 102.358 274.789 103.335 274.398 104.246C274.073 105.158 273.715 106.069 273.324 106.98C272.999 107.827 272.576 108.803 272.055 109.91H278.695C278.826 110.626 279.118 111.115 279.574 111.375C280.03 111.635 280.518 111.863 281.039 112.059C281.56 112.254 282.016 112.514 282.406 112.84C282.862 113.1 283.09 113.556 283.09 114.207C284.327 114.533 285.108 115.021 285.434 115.672C285.759 116.323 285.824 117.039 285.629 117.82C285.499 118.536 285.173 119.285 284.652 120.066C284.197 120.848 283.741 121.531 283.285 122.117C282.699 121.987 282.146 122.15 281.625 122.605C281.104 122.996 280.616 123.452 280.16 123.973C278.272 123.712 276.417 123.68 274.594 123.875C272.771 124.07 271.078 124.233 269.516 124.363C269.19 124.428 269.06 124.624 269.125 124.949C269.19 125.21 269.125 125.405 268.93 125.535C266.911 124.884 264.828 124.624 262.68 124.754C260.596 124.884 258.448 125.21 256.234 125.73C254.086 126.186 251.872 126.674 249.594 127.195C247.315 127.781 245.004 128.107 242.66 128.172Z" fill="#A6A5A1"/>
</svg>
